<?xml version="1.0" encoding="utf-8"?><svg viewBox="0 0 502.66 502.66" xmlns="http://www.w3.org/2000/svg" xmlns:xlink="http://www.w3.org/1999/xlink"><style>:root>svg{display:none}:root>svg:target{display:block}</style><svg viewBox="0 0 41 45" id="close" xmlns="http://www.w3.org/2000/svg"><path d="M10.439 33.376l19.868-21.752M30.307 33.808L10.439 12.056"/></svg><svg viewBox="0 0 50 50" id="close-menu" xmlns="http://www.w3.org/2000/svg"><path d="M12.744 37.184l24.44-24.701M37.184 37.443l-24.44-24.7"/></svg><svg viewBox="0 0 36 36" id="heart" xmlns="http://www.w3.org/2000/svg"><path d="M18.18 30.507l-.18.196-.198-.196C9.252 22.05 3.6 16.46 3.6 10.79c0-3.924 2.7-6.866 6.3-6.866 2.772 0 5.472 1.962 6.426 4.63h3.348c.954-2.668 3.654-4.63 6.426-4.63 3.6 0 6.3 2.942 6.3 6.866 0 5.67-5.652 11.261-14.22 19.717zM26.1 0c-3.132 0-6.138 1.59-8.1 4.08C16.038 1.59 13.032 0 9.9 0 4.356 0 0 4.728 0 10.79c0 7.396 6.12 13.459 15.39 22.62L18 36l2.61-2.59C29.88 24.25 36 18.186 36 10.79 36 4.728 31.644 0 26.1 0z"/></svg><svg viewBox="0 0 502.664 502.664" id="icon" xmlns="http://www.w3.org/2000/svg"><path d="M153.821 358.226L0 274.337v-46.463l153.821-83.414v54.574L46.636 250.523l107.185 53.431v54.272zm26.273 29.358L282.103 115.08h32.227L212.084 387.584h-31.99zm168.749-29.358v-54.272l107.164-52.999-107.164-52.59v-53.927l153.821 83.522v46.183l-153.821 84.083z"/></svg><svg viewBox="0 0 16 4" id="minus" xmlns="http://www.w3.org/2000/svg"><path d="M15.11 3.016H.89V.984h14.22v2.032z"/></svg><svg viewBox="0 0 16 16" id="plus" xmlns="http://www.w3.org/2000/svg"><path d="M15.111 9.016H9.016v6.095H6.984V9.016H.89V6.984h6.095V.89h2.032v6.095h6.095v2.032z"/></svg></svg>