<svg width="36" height="36" viewBox="0 0 36 36" fill="none" xmlns="http://www.w3.org/2000/svg">
<path d="M18.18 30.5068L18 30.703L17.802 30.5068C9.252 22.0512 3.6 16.4599 3.6 10.7902C3.6 6.86648 6.3 3.92371 9.9 3.92371C12.672 3.92371 15.372 5.88556 16.326 8.55368H19.674C20.628 5.88556 23.328 3.92371 26.1 3.92371C29.7 3.92371 32.4 6.86648 32.4 10.7902C32.4 16.4599 26.748 22.0512 18.18 30.5068ZM26.1 0C22.968 0 19.962 1.5891 18 4.08065C16.038 1.5891 13.032 0 9.9 0C4.356 0 0 4.72807 0 10.7902C0 18.1864 6.12 24.2485 15.39 33.4104L18 36L20.61 33.4104C29.88 24.2485 36 18.1864 36 10.7902C36 4.72807 31.644 0 26.1 0Z" fill="black"/>
</svg>
